<svg xmlns="http://www.w3.org/2000/svg" version="1.1" xmlns:xlink="http://www.w3.org/1999/xlink" xmlns:svgjs="http://svgjs.dev/svgjs" width="1500" height="1500" viewBox="0 0 1500 1500"><rect width="1500" height="1500" fill="#ffffff"></rect><g transform="matrix(0.6666666666666666,0,0,0.6666666666666666,249.39393939393938,645.7262276994599)"><svg viewBox="0 0 396 83" data-background-color="#ffffff" preserveAspectRatio="xMidYMid meet" height="314" width="1500" xmlns="http://www.w3.org/2000/svg" xmlns:xlink="http://www.w3.org/1999/xlink"><g id="tight-bounds" transform="matrix(1,0,0,1,0.2400000000000091,-0.10609661635379553)"><svg viewBox="0 0 395.52 83.21848221138589" height="83.21848221138589" width="395.52"><g><svg viewBox="0 0 560.8206171121275 117.99818099950456" height="83.21848221138589" width="395.52"><g transform="matrix(1,0,0,1,165.30061711212747,18.724474479933946)"><svg viewBox="0 0 395.52 80.54923203963666" height="80.54923203963666" width="395.52"><g id="textblocktransform"><svg viewBox="0 0 395.52 80.54923203963666" height="80.54923203963666" width="395.52" id="textblock"><g><svg viewBox="0 0 395.52 80.54923203963666" height="80.54923203963666" width="395.52"><g transform="matrix(1,0,0,1,0,0)"><svg width="395.52" viewBox="1.25 -37.5 236.5 48.17" height="80.54923203963666" data-palette-color="#b128ce"><path d="M16.8-7.37L16.8-7.37Q16.8-8.11 16.37-8.64 15.94-9.18 14.79-9.64 13.65-10.11 11.47-10.57L11.47-10.57Q8.81-11.16 6.68-12.16 4.54-13.16 3.32-14.76 2.1-16.36 2.1-18.63L2.1-18.63Q2.1-20.85 3.37-22.73 4.64-24.61 7.02-25.76 9.4-26.9 12.72-26.9L12.72-26.9Q16.19-26.9 18.7-25.81 21.22-24.71 22.56-22.78 23.9-20.85 23.9-18.36L23.9-18.36 16.53-18.36Q16.53-19.85 15.61-20.79 14.7-21.73 12.7-21.73L12.7-21.73Q11.62-21.73 10.82-21.36 10.01-21 9.58-20.4 9.16-19.8 9.16-18.99L9.16-18.99Q9.16-18.26 9.62-17.7 10.08-17.14 11.13-16.72 12.18-16.31 13.94-15.99L13.94-15.99Q16.75-15.45 19.02-14.51 21.29-13.57 22.63-11.95 23.97-10.33 23.97-7.64L23.97-7.64Q23.97-5.3 22.6-3.45 21.22-1.61 18.69-0.56 16.16 0.49 12.74 0.49L12.74 0.49Q9.01 0.49 6.45-0.85 3.88-2.2 2.56-4.26 1.25-6.32 1.25-8.47L1.25-8.47 8.23-8.47Q8.3-7.15 8.95-6.32 9.59-5.49 10.63-5.1 11.67-4.71 12.92-4.71L12.92-4.71Q14.18-4.71 15.05-5.04 15.92-5.37 16.36-5.97 16.8-6.57 16.8-7.37ZM41.57-26.42L41.57-21.04 25.97-21.04 25.97-26.42 41.57-26.42ZM29.73-32.93L37.11-32.93 37.11-8.25Q37.11-7.18 37.39-6.59 37.67-6.01 38.28-5.79 38.89-5.57 39.79-5.57L39.79-5.57Q40.45-5.57 40.96-5.62 41.48-5.66 41.84-5.74L41.84-5.74 41.82-0.17Q40.92 0.15 39.85 0.32 38.79 0.49 37.47 0.49L37.47 0.49Q35.1 0.49 33.36-0.31 31.61-1.1 30.67-2.84 29.73-4.59 29.73-7.42L29.73-7.42 29.73-32.93ZM60.83-6.37L60.83-26.42 68.21-26.42 68.21 0 61.3 0 60.83-6.37ZM61.66-11.84L63.79-11.89Q63.79-8.33 62.7-5.53 61.62-2.73 59.43-1.12 57.25 0.49 53.93 0.49L53.93 0.49Q50.02 0.49 47.59-1.79 45.16-4.08 45.16-9.33L45.16-9.33 45.16-26.42 52.53-26.42 52.53-9.28Q52.53-7.93 52.99-7.09 53.44-6.25 54.26-5.87 55.07-5.49 56.12-5.49L56.12-5.49Q58.25-5.49 59.46-6.32 60.66-7.15 61.16-8.59 61.66-10.03 61.66-11.84L61.66-11.84ZM88.86-5.88L88.86-37.5 96.28-37.5 96.28 0 89.62 0 88.86-5.88ZM72.28-12.89L72.28-13.4Q72.28-17.43 73.49-20.47 74.7-23.51 77.01-25.21 79.31-26.9 82.63-26.9L82.63-26.9Q85.73-26.9 87.82-25.13 89.91-23.36 91.12-20.3 92.33-17.24 92.79-13.35L92.79-13.35 92.79-12.74Q92.33-9.06 91.12-6.05 89.91-3.05 87.82-1.28 85.73 0.49 82.59 0.49L82.59 0.49Q79.31 0.49 77.01-1.26 74.7-3 73.49-6.03 72.28-9.06 72.28-12.89L72.28-12.89ZM79.66-13.4L79.66-12.89Q79.66-10.84 80.12-9.16 80.58-7.47 81.63-6.48 82.68-5.49 84.47-5.49L84.47-5.49Q86.22-5.49 87.35-6.29 88.47-7.08 89.06-8.5 89.64-9.91 89.74-11.77L89.74-11.77 89.74-14.31Q89.69-15.89 89.34-17.13 88.98-18.36 88.36-19.2 87.74-20.04 86.77-20.48 85.81-20.92 84.51-20.92L84.51-20.92Q82.76-20.92 81.68-19.93 80.61-18.95 80.13-17.25 79.66-15.55 79.66-13.4L79.66-13.4ZM109.39-3.05L116.3-26.42 124.18-26.42 113.64 3.96Q113.3 4.93 112.71 6.09 112.12 7.25 111.16 8.3 110.2 9.35 108.72 10.01 107.24 10.67 105.12 10.67L105.12 10.67Q104.43 10.67 103.93 10.62 103.43 10.57 102.97 10.46 102.5 10.35 101.92 10.21L101.92 10.21 101.92 4.64Q102.19 4.64 102.47 4.65 102.75 4.66 102.99 4.66L102.99 4.66Q105.07 4.66 106.02 4.03 106.97 3.39 107.46 2L107.46 2 109.39-3.05ZM106.9-26.42L112.39-7.74 113.39 0.39 108.41 0.73 98.96-26.42 106.9-26.42ZM143.49-35.55L143.49 0 135.83 0 135.83-35.55 143.49-35.55ZM154.28-35.55L154.28-29.35 125.18-29.35 125.18-35.55 154.28-35.55ZM165.66-26.42L165.66 0 158.26 0 158.26-26.42 165.66-26.42ZM157.82-33.23L157.82-33.23Q157.82-34.89 158.94-35.95 160.07-37.01 161.95-37.01L161.95-37.01Q163.83-37.01 164.94-35.95 166.05-34.89 166.05-33.23L166.05-33.23Q166.05-31.59 164.94-30.52 163.83-29.44 161.95-29.44L161.95-29.44Q160.07-29.44 158.94-30.52 157.82-31.59 157.82-33.23ZM178.67-20.9L178.67 0 171.3 0 171.3-26.42 178.23-26.42 178.67-20.9ZM177.64-14.09L175.62-13.99Q175.62-17.75 176.79-20.65 177.96-23.56 180.27-25.23 182.58-26.9 185.99-26.9L185.99-26.9Q189.51-26.9 191.73-24.74 193.95-22.58 193.95-17.63L193.95-17.63 193.95 0 186.58 0 186.58-16.72Q186.58-18.41 186.13-19.32 185.68-20.24 184.82-20.58 183.97-20.92 182.77-20.92L182.77-20.92Q181.48-20.92 180.5-20.42 179.52-19.92 178.89-18.99 178.25-18.07 177.95-16.81 177.64-15.55 177.64-14.09L177.64-14.09ZM193.27-14.58L190.66-14.28Q190.63-17.87 191.77-20.73 192.9-23.58 195.17-25.24 197.44-26.9 200.81-26.9L200.81-26.9Q203.35-26.9 205.26-25.93 207.16-24.95 208.21-22.73 209.26-20.51 209.26-16.77L209.26-16.77 209.26 0 201.84 0 201.84-16.8Q201.84-18.51 201.39-19.38 200.93-20.26 200.09-20.59 199.25-20.92 198.08-20.92L198.08-20.92Q196.86-20.92 195.97-20.46 195.08-20 194.48-19.13 193.88-18.26 193.57-17.1 193.27-15.94 193.27-14.58L193.27-14.58ZM226.84 0.49L226.84 0.49Q222.66 0.49 219.69-1.25 216.73-2.98 215.15-5.88 213.58-8.79 213.58-12.3L213.58-12.3 213.58-13.26Q213.58-17.21 215.08-20.3 216.58-23.39 219.36-25.15 222.15-26.9 226.01-26.9L226.01-26.9Q229.84-26.9 232.45-25.29 235.06-23.68 236.41-20.76 237.75-17.85 237.75-13.92L237.75-13.92 237.75-10.79 216.68-10.79 216.68-15.75 230.5-15.75 230.5-16.33Q230.5-17.7 230.01-18.75 229.52-19.8 228.53-20.39 227.54-20.97 225.96-20.97L225.96-20.97Q224.15-20.97 223.05-19.95 221.95-18.92 221.45-17.19 220.95-15.45 220.95-13.26L220.95-13.26 220.95-12.3Q220.95-10.28 221.71-8.74 222.47-7.2 223.88-6.34 225.3-5.47 227.3-5.47L227.3-5.47Q229.18-5.47 230.81-6.16 232.45-6.86 233.6-8.35L233.6-8.35 237.16-4.27Q235.92-2.49 233.32-1 230.72 0.49 226.84 0.49Z" opacity="1" transform="matrix(1,0,0,1,0,0)" fill="#b128ce" class="wordmark-text-0" data-fill-palette-color="primary" id="text-0"></path></svg></g></svg></g></svg></g></svg></g><g><svg viewBox="0 0 146.2848766091382 117.99818099950456" height="117.99818099950456" width="146.2848766091382"><g><svg xmlns="http://www.w3.org/2000/svg" data-name="Your Icon" viewBox="5.5100000000000025 23.318313820262535 89.27444287286029 72.01169466675847" x="0" y="0" height="117.99818099950456" width="146.2848766091382" class="icon-icon-0" data-fill-palette-color="accent" id="icon-0"><path class="cls-1" d="M81.61 82V77.83a1.1 1.1 0 0 0-1.1-1.1H78L94.47 59.1a1.1 1.1 0 0 0 0-1.54L74.09 37.95l4.1-4.43A1.1 1.1 0 0 0 78.13 32L76 30l2.12-2.29a1.1 1.1 0 0 0-0.06-1.55l-2.75-2.55a1.06 1.06 0 0 0-0.79-0.29 1.09 1.09 0 0 0-0.76 0.35L71.67 26 70 24.43a1.1 1.1 0 0 0-1.55 0.06l-11.11 12A16.81 16.81 0 0 0 53 35.91 20.92 20.92 0 0 0 37.72 43a1.1 1.1 0 0 0 0.07 1.55l23.58 21.5A1.1 1.1 0 0 0 62.91 66c5.59-6.13 7.1-14.38 4.43-20.76l5.25-5.67L92.13 58.39 74.94 76.73H70.33a1.1 1.1 0 0 0-1.1 1.1V82c-6.88 1.61-11.81 5.95-13.13 12a1.1 1.1 0 0 0 1.07 1.33H93.66A1.1 1.1 0 0 0 94.74 94C93.41 87.94 88.48 83.61 81.61 82Zm-7-56L75.79 27l-1.37 1.48-1.14-1.06ZM62 63.68l-21.91-20A18.55 18.55 0 0 1 53 38.11a14.41 14.41 0 0 1 4.32 0.66h0a13.26 13.26 0 0 1 2.57 1.12h0c0.37 0.21 0.72 0.44 1.06 0.68l0.12 0.08a12.42 12.42 0 0 1 1 0.85 12.75 12.75 0 0 1 0.92 0.94c0.16 0.19 0.32 0.38 0.47 0.58l0.31 0.4q0.29 0.4 0.55 0.83l0.11 0.17c0.19 0.33 0.38 0.67 0.55 1C67.64 50.88 66.59 58.09 62 63.68Zm3.21-22L65 41.34a14.86 14.86 0 0 0-1.36-1.44 15.13 15.13 0 0 0-1.8-1.39l-0.18-0.12a15 15 0 0 0-2.07-1.11l9.72-10.49L71 28.33h0l2.75 2.55h0l2.1 1.95L66.28 43.14 66.21 43A14.82 14.82 0 0 0 65.22 41.63Zm6.21 37.3h8v2.65a28.08 28.08 0 0 0-8 0V78.93ZM58.62 93.09c2-5.88 8.45-9.61 16.8-9.61s14.77 3.73 16.8 9.61H58.62Z" fill="#f41192" data-fill-palette-color="accent"></path><path class="cls-1" d="M11.45 82.87a5.94 5.94 0 0 0 0 11.88H51.21v-1.5H11.45a4.44 4.44 0 0 1 0-8.88H51.21v-1.5H11.45Z" fill="#f41192" data-fill-palette-color="accent"></path><rect class="cls-1" x="9.92" y="85.33" width="41.28" height="1.5" fill="#f41192" data-fill-palette-color="accent"></rect><rect class="cls-1" x="9.92" y="87.99" width="41.28" height="1.5" fill="#f41192" data-fill-palette-color="accent"></rect><rect class="cls-1" x="9.92" y="90.84" width="41.28" height="1.5" fill="#f41192" data-fill-palette-color="accent"></rect><path class="cls-1" d="M48.32 74.79a6 6 0 0 0-5.94-5.94H12.12v1.5H42.38a4.44 4.44 0 1 1 0 8.88H12.12v1.5H42.38A6 6 0 0 0 48.32 74.79Z" fill="#f41192" data-fill-palette-color="accent"></path><rect class="cls-1" x="12.12" y="76.95" width="31.78" height="1.5" fill="#f41192" data-fill-palette-color="accent"></rect><rect class="cls-1" x="12.12" y="74.11" width="31.78" height="1.5" fill="#f41192" data-fill-palette-color="accent"></rect><rect class="cls-1" x="12.12" y="71.26" width="31.78" height="1.5" fill="#f41192" data-fill-palette-color="accent"></rect></svg></g></svg></g></svg></g><defs></defs></svg><rect width="395.52" height="83.21848221138589" fill="none" stroke="none" visibility="hidden"></rect></g></svg></g></svg>